<svg xmlns="http://www.w3.org/2000/svg" width="27" height="27" viewBox="0 0 27 27"><defs><style>.a{fill:#fff;}.b{fill:#26b9b6;}</style></defs><g transform="translate(-2486 -218)"><circle class="a" cx="13.5" cy="13.5" r="13.5" transform="translate(2486 218)"/><path class="b" d="M27.563,14.063a13.5,13.5,0,1,1-13.5-13.5A13.5,13.5,0,0,1,27.563,14.063ZM12.5,21.211,22.517,11.195a.871.871,0,0,0,0-1.232L21.285,8.731a.871.871,0,0,0-1.232,0L11.885,16.9,8.071,13.086a.871.871,0,0,0-1.232,0L5.608,14.318a.871.871,0,0,0,0,1.232l5.661,5.661a.871.871,0,0,0,1.232,0Z" transform="translate(2485.438 217.438)"/></g></svg>