<svg xmlns="http://www.w3.org/2000/svg" width="202.155" height="228.022" viewBox="0 0 202.155 228.022"><defs><style>.a{fill:#fff;}.b{fill:none;}.c{fill:#00bebe;}.d{opacity:0.4;}</style></defs><g transform="translate(-971.823 -433.067)"><g transform="translate(-841.482 1638.652)"><g transform="translate(-19 -41)"><rect class="a" width="3.475" height="3.475" transform="translate(1890.296 -1028.159)"/><path class="b" d="M1896.01-1026.412a8.73,8.73,0,0,1-3.977-3.977,8.73,8.73,0,0,1-1.9,2.522l3.547,3.129A8.79,8.79,0,0,1,1896.01-1026.412Z"/><path class="c" d="M1893.05-1018.222a.959.959,0,0,1-.959.959.959.959,0,0,1-.959-.959,7.072,7.072,0,0,0-7.23-7.231.958.958,0,0,1-.959-.959.958.958,0,0,1,.959-.958,7.226,7.226,0,0,0,4.693-1.687,26.059,26.059,0,0,0-13.8-3.946,26.207,26.207,0,0,0-26.207,26.207,26.207,26.207,0,0,0,26.207,26.207A26.207,26.207,0,0,0,1901-1006.8a26.069,26.069,0,0,0-5.913-16.545A7.209,7.209,0,0,0,1893.05-1018.222Z"/><path class="a" d="M1892.033-1016.263a1.962,1.962,0,0,1-1.959-1.959,6.094,6.094,0,0,0-6.23-6.231,1.961,1.961,0,0,1-1.959-1.958,1.962,1.962,0,0,1,1.959-1.959,6.225,6.225,0,0,0,4.051-1.454,6.116,6.116,0,0,0,2.179-4.777,1.962,1.962,0,0,1,1.959-1.959,1.961,1.961,0,0,1,1.959,1.959,6.1,6.1,0,0,0,6.231,6.231,1.962,1.962,0,0,1,1.959,1.959,1.961,1.961,0,0,1-1.959,1.958,6.217,6.217,0,0,0-4.483,1.813,6.236,6.236,0,0,0-1.748,4.418A1.961,1.961,0,0,1,1892.033-1016.263Zm-2.07-10.158a9.61,9.61,0,0,1,2.071,2.069,9.613,9.613,0,0,1,.939-1.091,9.54,9.54,0,0,1,1.12-.967,9.63,9.63,0,0,1-2.067-2.069,10.04,10.04,0,0,1-1.211,1.343A10.619,10.619,0,0,1,1889.963-1026.421Z"/><path class="c" d="M1892.033-1035.56a.959.959,0,0,1,.959.959,7.073,7.073,0,0,0,7.231,7.231.959.959,0,0,1,.959.958.959.959,0,0,1-.959.959,7.2,7.2,0,0,0-5.2,2.112,7.21,7.21,0,0,0-2.035,5.119.959.959,0,0,1-.959.959.959.959,0,0,1-.959-.959,7.072,7.072,0,0,0-7.23-7.231.958.958,0,0,1-.959-.959.958.958,0,0,1,.959-.958,7.226,7.226,0,0,0,4.693-1.687,7.127,7.127,0,0,0,2.537-5.544.959.959,0,0,1,.959-.959m0,13.125a8.772,8.772,0,0,1,1.647-2.3,8.79,8.79,0,0,1,2.33-1.674,8.73,8.73,0,0,1-3.977-3.977,8.73,8.73,0,0,1-1.9,2.522,8.718,8.718,0,0,1-2.077,1.455,8.738,8.738,0,0,1,3.977,3.977m0-15.125a2.963,2.963,0,0,0-2.959,2.959,5.13,5.13,0,0,1-1.822,4.011,5.233,5.233,0,0,1-3.408,1.22,2.962,2.962,0,0,0-2.959,2.958,2.962,2.962,0,0,0,2.959,2.959,5.059,5.059,0,0,1,5.23,5.231,2.962,2.962,0,0,0,2.959,2.959,2.962,2.962,0,0,0,2.959-2.959,5.242,5.242,0,0,1,1.461-3.716,5.221,5.221,0,0,1,3.77-1.515,2.962,2.962,0,0,0,2.959-2.959,2.962,2.962,0,0,0-2.959-2.958,5.059,5.059,0,0,1-5.231-5.231,2.962,2.962,0,0,0-2.959-2.959Zm-.512,11.133q.258-.242.5-.495c.165.177.335.348.512.513-.091.085-.18.172-.268.26s-.153.156-.227.235c-.166-.177-.337-.348-.515-.513Z"/><path class="a" d="M1870.125-1023.611v-5.6h2.955v.567h-2.308v2.061h2.029v.568h-2.029v2.4Z"/><path class="a" d="M1874.455-1029.682a.447.447,0,0,1,.463.455.445.445,0,0,1-.463.448.441.441,0,0,1-.447-.448A.443.443,0,0,1,1874.455-1029.682Zm-.272,1.725h.624v4.346h-.624Z"/><path class="a" d="M1879.568-1023.611h-.623v-2.852c0-.663-.327-1.03-.934-1.03a1.173,1.173,0,0,0-1.1.774v3.108h-.623v-4.346h.471l.128.456h.032a1.647,1.647,0,0,1,1.238-.544,1.3,1.3,0,0,1,1.414,1.438Z"/><path class="a" d="M1868.934-990.619a2.19,2.19,0,0,1,1.486.463l-.4.488a1.66,1.66,0,0,0-1.15-.376c-.975,0-1.574.711-1.574,2.293,0,1.518.567,2.308,1.638,2.308a1.5,1.5,0,0,0,1.094-.343l.352.455a2.174,2.174,0,0,1-1.534.472c-1.542,0-2.2-1.111-2.2-2.836C1866.641-989.533,1867.44-990.619,1868.934-990.619Z"/><path class="a" d="M1874.183-988.031v1.965c0,.392.12.655.423.655h.112v.456a.487.487,0,0,1-.224.048.78.78,0,0,1-.79-.528h-.032a1.568,1.568,0,0,1-1.294.583,1.169,1.169,0,0,1-1.254-1.158c0-.958.942-1.43,2.484-1.406v-.471c0-.711-.344-.919-.919-.919a1.091,1.091,0,0,0-.99.528l-.456-.36a1.7,1.7,0,0,1,1.462-.711C1873.632-989.349,1874.183-988.941,1874.183-988.031Zm-.575,1.1c-1.047-.04-1.869.215-1.869.87a.7.7,0,0,0,.782.7,1.341,1.341,0,0,0,1.087-.591Z"/><path class="a" d="M1875.566-988.151a1.316,1.316,0,0,1,1.486-1.206,1.794,1.794,0,0,1,1.27.464l-.4.431a1.288,1.288,0,0,0-.886-.352c-.591,0-.855.3-.855.647,0,.975,2.2.584,2.2,2.061,0,.6-.5,1.239-1.55,1.239a2.169,2.169,0,0,1-1.534-.552l.384-.463a1.641,1.641,0,0,0,1.182.479c.607,0,.9-.319.9-.687C1877.763-987.072,1875.566-986.681,1875.566-988.151Z"/><path class="a" d="M1882.788-987.943v3h-.623v-2.908a.853.853,0,0,0-.879-.959,1.247,1.247,0,0,0-1.158.767v3.1h-.623V-991h.623v2.2h.032a1.6,1.6,0,0,1,1.254-.551A1.291,1.291,0,0,1,1882.788-987.943Z"/><path class="a" d="M1883.689-1014.714q-.993-.594-1.9-1.075a13.382,13.382,0,0,0-1.9-.823,12.608,12.608,0,0,0-2.159-.525,17.058,17.058,0,0,0-2.625-.183,9.149,9.149,0,0,0-4.7,1.028,3.114,3.114,0,0,0-1.721,2.766,2.415,2.415,0,0,0,1.371,2.1,17.249,17.249,0,0,0,3.442,1.509q2.07.686,4.464,1.372a30.713,30.713,0,0,1,4.463,1.645,11.884,11.884,0,0,1,3.443,2.332,4.714,4.714,0,0,1,1.371,3.475,5.34,5.34,0,0,1-.729,2.72,6.807,6.807,0,0,1-2.1,2.194,12.786,12.786,0,0,1-3.267,1.555,18.15,18.15,0,0,1-4.172.8v2.246h-3.5v-2.2a24.04,24.04,0,0,1-6.185-1.235,22.669,22.669,0,0,1-4.96-2.331l2.276-2.606a31.588,31.588,0,0,0,4.872,2.171,17.889,17.889,0,0,0,5.981.937,10.019,10.019,0,0,0,5.28-1.12,3.3,3.3,0,0,0,1.78-2.857,2.774,2.774,0,0,0-1.371-2.354,15.063,15.063,0,0,0-3.414-1.669q-2.043-.73-4.463-1.417a30.875,30.875,0,0,1-4.464-1.623,12.4,12.4,0,0,1-3.413-2.241,4.37,4.37,0,0,1-1.372-3.314,5.542,5.542,0,0,1,2.6-4.709,13.8,13.8,0,0,1,6.856-2.2v-2.238h3.5v2.193a16.1,16.1,0,0,1,5.368,1.188,19.782,19.782,0,0,1,3.909,2.286Z"/></g><g transform="translate(-19 -41)"><g class="d"><circle class="a" cx="38.577" cy="38.577" r="38.577" transform="translate(1836.305 -1046.652)"/></g><path class="a" d="M1874.883-1046.652a38.578,38.578,0,0,1,38.577,38.578,38.578,38.578,0,0,1-38.577,38.577,38.578,38.578,0,0,1-38.578-38.577,38.578,38.578,0,0,1,38.578-38.578m0-4a42.626,42.626,0,0,0-42.578,42.578,42.625,42.625,0,0,0,42.578,42.577,42.625,42.625,0,0,0,42.577-42.577,42.625,42.625,0,0,0-42.577-42.578Z"/><path class="a" d="M1850.749-985.479a1.5,1.5,0,0,1-1.017-.4c-11.273-10.4-10.382-28.5-3.676-41a1.5,1.5,0,0,1,2.031-.612,1.5,1.5,0,0,1,.613,2.03c-6.161,11.488-7.086,28.015,3.066,37.378a1.5,1.5,0,0,1,.086,2.12A1.5,1.5,0,0,1,1850.749-985.479Z"/><ellipse class="a" cx="1.125" cy="1.891" rx="1.125" ry="1.891" transform="translate(1852.373 -983.681) rotate(-42.289)"/></g></g><g transform="translate(-736.305 1483.719)"><g transform="translate(1843.588 -1041.578)"><g transform="translate(28.911 6.516)"><rect class="a" width="2.409" height="2.409"/></g><g transform="translate(28.798 4.97)"><path class="b" d="M1894.206-1027.632a6.051,6.051,0,0,1-2.757-2.757,6.051,6.051,0,0,1-1.317,1.748l2.458,2.169A6.093,6.093,0,0,1,1894.206-1027.632Z" transform="translate(-1890.133 1030.389)"/></g><g transform="translate(0 3.159)"><path class="c" d="M1879.4-1022.758a.664.664,0,0,1-.665.665.665.665,0,0,1-.665-.665,4.9,4.9,0,0,0-5.011-5.012.664.664,0,0,1-.665-.665.664.664,0,0,1,.665-.664,5.009,5.009,0,0,0,3.253-1.169,18.062,18.062,0,0,0-9.568-2.735,18.164,18.164,0,0,0-18.165,18.164,18.164,18.164,0,0,0,18.165,18.164,18.164,18.164,0,0,0,18.164-18.164,18.069,18.069,0,0,0-4.1-11.468A5,5,0,0,0,1879.4-1022.758Z" transform="translate(-1848.584 1033.003)"/></g><g transform="translate(22.388)"><g transform="translate(0.693 0.693)"><path class="a" d="M1888.919-1022.492a1.36,1.36,0,0,1-1.358-1.358,4.224,4.224,0,0,0-4.318-4.319,1.359,1.359,0,0,1-1.358-1.357,1.36,1.36,0,0,1,1.358-1.358,4.315,4.315,0,0,0,2.808-1.008,4.239,4.239,0,0,0,1.51-3.311,1.36,1.36,0,0,1,1.358-1.358,1.359,1.359,0,0,1,1.358,1.358,4.224,4.224,0,0,0,4.319,4.319,1.36,1.36,0,0,1,1.358,1.358,1.359,1.359,0,0,1-1.358,1.357,4.309,4.309,0,0,0-3.107,1.257,4.323,4.323,0,0,0-1.212,3.062A1.359,1.359,0,0,1,1888.919-1022.492Zm-1.435-7.041a6.655,6.655,0,0,1,1.436,1.434,6.657,6.657,0,0,1,.651-.756,6.608,6.608,0,0,1,.776-.67,6.681,6.681,0,0,1-1.433-1.434,6.967,6.967,0,0,1-.839.931A7.358,7.358,0,0,1,1887.484-1029.532Z" transform="translate(-1881.885 1036.56)"/></g><path class="c" d="M1888.612-1036.174a.665.665,0,0,1,.665.665,4.9,4.9,0,0,0,5.012,5.012.665.665,0,0,1,.665.664.665.665,0,0,1-.665.665,4.989,4.989,0,0,0-3.6,1.464,5,5,0,0,0-1.411,3.548.665.665,0,0,1-.665.665.664.664,0,0,1-.665-.665,4.9,4.9,0,0,0-5.011-5.012.664.664,0,0,1-.665-.665.664.664,0,0,1,.665-.664,5.009,5.009,0,0,0,3.253-1.169,4.94,4.94,0,0,0,1.758-3.843.665.665,0,0,1,.665-.665m0,9.1a6.082,6.082,0,0,1,1.142-1.6,6.089,6.089,0,0,1,1.615-1.16,6.05,6.05,0,0,1-2.757-2.757,6.049,6.049,0,0,1-1.317,1.748,6.045,6.045,0,0,1-1.44,1.008,6.057,6.057,0,0,1,2.757,2.756m0-10.483a2.054,2.054,0,0,0-2.051,2.051,3.555,3.555,0,0,1-1.263,2.78,3.627,3.627,0,0,1-2.362.846,2.053,2.053,0,0,0-2.051,2.05,2.053,2.053,0,0,0,2.051,2.051,3.507,3.507,0,0,1,3.625,3.626,2.054,2.054,0,0,0,2.051,2.051,2.053,2.053,0,0,0,2.051-2.051,3.634,3.634,0,0,1,1.013-2.576,3.619,3.619,0,0,1,2.613-1.05,2.053,2.053,0,0,0,2.051-2.051,2.053,2.053,0,0,0-2.051-2.05,3.507,3.507,0,0,1-3.626-3.626,2.053,2.053,0,0,0-2.051-2.051Zm-.355,7.717q.179-.167.345-.343c.115.123.232.241.355.356-.063.059-.125.119-.186.18s-.106.108-.157.163c-.115-.123-.234-.241-.357-.356Z" transform="translate(-1880.885 1037.56)"/></g><g transform="translate(9.53 5.46)"><g transform="translate(5.401)"><g transform="translate(0 0.326)"><path class="a" d="M1870.125-1025.33v-3.881h2.048v.393h-1.6v1.429h1.406v.394h-1.406v1.666Z" transform="translate(-1870.125 1029.211)"/></g><g transform="translate(2.691)"><path class="a" d="M1874.318-1029.682a.31.31,0,0,1,.321.315.309.309,0,0,1-.321.311.306.306,0,0,1-.31-.311A.307.307,0,0,1,1874.318-1029.682Zm-.188,1.2h.433v3.012h-.433Z" transform="translate(-1874.008 1029.682)"/></g><g transform="translate(4.27 1.135)"><path class="a" d="M1878.56-1024.972h-.432v-1.977c0-.459-.227-.714-.647-.714a.813.813,0,0,0-.765.536v2.154h-.432v-3.012h.326l.089.316h.022a1.142,1.142,0,0,1,.858-.377.9.9,0,0,1,.98,1Z" transform="translate(-1876.285 1028.045)"/></g></g><g transform="translate(2.986 26.81)"><g transform="translate(0 0.265)"><path class="a" d="M1868.23-990.619a1.518,1.518,0,0,1,1.03.321l-.277.338a1.151,1.151,0,0,0-.8-.261c-.676,0-1.091.493-1.091,1.589,0,1.052.393,1.6,1.135,1.6a1.039,1.039,0,0,0,.758-.238l.244.315a1.507,1.507,0,0,1-1.063.327c-1.069,0-1.528-.77-1.528-1.966C1866.641-989.866,1867.195-990.619,1868.23-990.619Z" transform="translate(-1866.641 990.619)"/></g><g transform="translate(3.107 1.146)"><path class="a" d="M1873.244-988.435v1.362c0,.272.083.454.293.454h.078v.316a.337.337,0,0,1-.155.033.541.541,0,0,1-.548-.366h-.022a1.087,1.087,0,0,1-.9.4.81.81,0,0,1-.869-.8c0-.664.653-.991,1.722-.975v-.326c0-.493-.239-.637-.637-.637a.756.756,0,0,0-.686.366l-.316-.25a1.176,1.176,0,0,1,1.013-.493C1872.862-989.349,1873.244-989.066,1873.244-988.435Zm-.4.765c-.726-.028-1.3.149-1.3.6a.486.486,0,0,0,.542.482.929.929,0,0,0,.754-.41Z" transform="translate(-1871.124 989.349)"/></g><g transform="translate(5.997 1.14)"><path class="a" d="M1875.482-988.521a.912.912,0,0,1,1.03-.836,1.244,1.244,0,0,1,.88.322l-.277.3a.893.893,0,0,0-.614-.244c-.41,0-.593.205-.593.448,0,.676,1.523.4,1.523,1.429,0,.416-.349.859-1.074.859a1.5,1.5,0,0,1-1.063-.383l.266-.321a1.138,1.138,0,0,0,.819.332c.421,0,.626-.221.626-.476C1877.005-987.773,1875.482-987.5,1875.482-988.521Z" transform="translate(-1875.294 989.357)"/></g><g transform="translate(8.916)"><path class="a" d="M1881.78-988.882v2.082h-.432v-2.016a.592.592,0,0,0-.609-.665.864.864,0,0,0-.8.532v2.149h-.432V-991h.432v1.522h.022a1.106,1.106,0,0,1,.869-.382A.9.9,0,0,1,1881.78-988.882Z" transform="translate(-1879.505 991.002)"/></g></g><g transform="translate(0 4.925)"><path class="a" d="M1877.135-1017.127q-.688-.412-1.315-.745a9.282,9.282,0,0,0-1.314-.57,8.755,8.755,0,0,0-1.5-.364,11.83,11.83,0,0,0-1.82-.127,6.341,6.341,0,0,0-3.255.713,2.158,2.158,0,0,0-1.193,1.917,1.674,1.674,0,0,0,.95,1.458,11.954,11.954,0,0,0,2.386,1.046q1.434.475,3.094.951a21.275,21.275,0,0,1,3.093,1.14,8.237,8.237,0,0,1,2.386,1.616,3.268,3.268,0,0,1,.95,2.409,3.7,3.7,0,0,1-.505,1.885,4.719,4.719,0,0,1-1.456,1.521,8.866,8.866,0,0,1-2.264,1.078,12.574,12.574,0,0,1-2.892.554v1.557h-2.427v-1.525a16.66,16.66,0,0,1-4.287-.856,15.709,15.709,0,0,1-3.438-1.616l1.577-1.806a21.889,21.889,0,0,0,3.377,1.5,12.4,12.4,0,0,0,4.146.649,6.945,6.945,0,0,0,3.66-.776,2.289,2.289,0,0,0,1.234-1.98,1.923,1.923,0,0,0-.95-1.632,10.444,10.444,0,0,0-2.366-1.157q-1.416-.506-3.094-.982a21.4,21.4,0,0,1-3.094-1.125,8.6,8.6,0,0,1-2.366-1.553,3.029,3.029,0,0,1-.951-2.3,3.841,3.841,0,0,1,1.8-3.264,9.567,9.567,0,0,1,4.752-1.521v-1.551h2.427v1.52a11.16,11.16,0,0,1,3.721.823,13.711,13.711,0,0,1,2.709,1.584Z" transform="translate(-1862.333 1022.576)"/></g></g></g><g transform="translate(1832.305 -1050.652)"><g class="d" transform="translate(2.773 2.773)"><circle class="a" cx="26.739" cy="26.739" r="26.739"/></g><path class="a" d="M1861.816-1047.88a26.739,26.739,0,0,1,26.738,26.739,26.739,26.739,0,0,1-26.738,26.738,26.739,26.739,0,0,1-26.739-26.738,26.739,26.739,0,0,1,26.739-26.739m0-2.772a29.544,29.544,0,0,0-29.511,29.511,29.544,29.544,0,0,0,29.511,29.511,29.544,29.544,0,0,0,29.511-29.511,29.544,29.544,0,0,0-29.511-29.511Z" transform="translate(-1832.305 1050.652)"/><g transform="translate(6.104 15.93)"><path class="a" d="M1847.791-998.426a1.036,1.036,0,0,1-.7-.276c-7.813-7.206-7.2-19.751-2.548-28.418a1.039,1.039,0,0,1,1.408-.424,1.039,1.039,0,0,1,.425,1.407c-4.27,7.963-4.911,19.418,2.125,25.907a1.04,1.04,0,0,1,.06,1.469A1.039,1.039,0,0,1,1847.791-998.426Z" transform="translate(-1841.111 1027.669)"/></g><g transform="translate(13.91 45.37)"><ellipse class="a" cx="0.78" cy="1.31" rx="0.78" ry="1.31" transform="translate(0 1.049) rotate(-42.289)"/></g></g></g><g transform="translate(1095.786 631.875)"><g class="d" transform="translate(1.372 1.372)"><circle class="a" cx="13.235" cy="13.235" r="13.235"/></g><path class="a" d="M1846.912-1049.28a13.235,13.235,0,0,1,13.234,13.235,13.235,13.235,0,0,1-13.234,13.234,13.235,13.235,0,0,1-13.235-13.234,13.235,13.235,0,0,1,13.235-13.235m0-1.372a14.623,14.623,0,0,0-14.607,14.607,14.623,14.623,0,0,0,14.607,14.607,14.623,14.623,0,0,0,14.607-14.607,14.623,14.623,0,0,0-14.607-14.607Z" transform="translate(-1832.305 1050.652)"/><g transform="translate(3.021 7.885)"><path class="a" d="M1844.418-1013.195a.512.512,0,0,1-.349-.137c-3.867-3.567-3.562-9.776-1.261-14.066a.515.515,0,0,1,.7-.21.514.514,0,0,1,.21.7c-2.114,3.941-2.431,9.611,1.052,12.823a.515.515,0,0,1,.029.727A.514.514,0,0,1,1844.418-1013.195Z" transform="translate(-1841.111 1027.669)"/></g><g transform="translate(6.885 22.456)"><ellipse class="a" cx="0.386" cy="0.649" rx="0.386" ry="0.649" transform="translate(0 0.519) rotate(-42.289)"/></g></g><g transform="translate(1154.809 574.897)"><g class="d" transform="translate(0.9 0.9)"><circle class="a" cx="8.684" cy="8.684" r="8.684"/></g><path class="a" d="M1841.89-1049.751a8.684,8.684,0,0,1,8.684,8.684,8.684,8.684,0,0,1-8.684,8.684,8.684,8.684,0,0,1-8.684-8.684,8.684,8.684,0,0,1,8.684-8.684m0-.9a9.6,9.6,0,0,0-9.585,9.585,9.6,9.6,0,0,0,9.585,9.584,9.6,9.6,0,0,0,9.584-9.584,9.6,9.6,0,0,0-9.584-9.585Z" transform="translate(-1832.305 1050.652)"/><g transform="translate(1.982 5.174)"><path class="a" d="M1843.281-1018.172a.336.336,0,0,1-.229-.09c-2.537-2.34-2.337-6.415-.827-9.23a.338.338,0,0,1,.457-.138.337.337,0,0,1,.138.457c-1.387,2.586-1.595,6.306.69,8.414a.338.338,0,0,1,.019.477A.337.337,0,0,1,1843.281-1018.172Z" transform="translate(-1841.111 1027.669)"/></g><g transform="translate(4.517 14.735)"><ellipse class="a" cx="0.253" cy="0.426" rx="0.253" ry="0.426" transform="translate(0 0.341) rotate(-42.289)"/></g></g><g transform="translate(1043.809 448)"><g class="d" transform="translate(0.9 0.9)"><circle class="a" cx="8.684" cy="8.684" r="8.684"/></g><path class="a" d="M1841.89-1049.751a8.684,8.684,0,0,1,8.684,8.684,8.684,8.684,0,0,1-8.684,8.684,8.684,8.684,0,0,1-8.684-8.684,8.684,8.684,0,0,1,8.684-8.684m0-.9a9.6,9.6,0,0,0-9.585,9.585,9.6,9.6,0,0,0,9.585,9.584,9.6,9.6,0,0,0,9.584-9.584,9.6,9.6,0,0,0-9.584-9.585Z" transform="translate(-1832.305 1050.652)"/><g transform="translate(1.982 5.174)"><path class="a" d="M1843.281-1018.172a.336.336,0,0,1-.229-.09c-2.537-2.34-2.337-6.415-.827-9.23a.338.338,0,0,1,.457-.138.337.337,0,0,1,.138.457c-1.387,2.586-1.595,6.306.69,8.414a.338.338,0,0,1,.019.477A.337.337,0,0,1,1843.281-1018.172Z" transform="translate(-1841.111 1027.669)"/></g><g transform="translate(4.517 14.735)"><ellipse class="a" cx="0.253" cy="0.426" rx="0.253" ry="0.426" transform="translate(0 0.341) rotate(-42.289)"/></g></g></g></svg>