<svg xmlns="http://www.w3.org/2000/svg" width="55.863" height="95.528" viewBox="0 0 55.863 95.528"><defs><style>.a{opacity:0.4;}.b{fill:#fff;}</style></defs><g transform="translate(-325.633 -459.64)"><g transform="translate(325.633 459.641)"><g class="a" transform="translate(0.739 0.739)"><ellipse class="b" cx="7.129" cy="7.129" rx="7.129" ry="7.129"/></g><g transform="translate(0 0)"><path class="b" d="M1840.173-1049.913a7.129,7.129,0,0,1,7.129,7.129,7.129,7.129,0,0,1-7.129,7.129,7.129,7.129,0,0,1-7.129-7.129,7.129,7.129,0,0,1,7.129-7.129m0-.739a7.877,7.877,0,0,0-7.868,7.868,7.877,7.877,0,0,0,7.868,7.868,7.877,7.877,0,0,0,7.868-7.868,7.877,7.877,0,0,0-7.868-7.868Z" transform="translate(-1832.305 1050.652)"/></g><g transform="translate(1.627 4.247)"><path class="b" d="M1842.892-1019.872a.276.276,0,0,1-.188-.074c-2.083-1.921-1.919-5.266-.679-7.577a.277.277,0,0,1,.375-.113.277.277,0,0,1,.113.375c-1.139,2.123-1.309,5.177.567,6.907a.277.277,0,0,1,.016.392A.276.276,0,0,1,1842.892-1019.872Z" transform="translate(-1841.111 1027.669)"/></g><g transform="translate(3.709 12.096)"><ellipse class="b" cx="0.208" cy="0.349" rx="0.208" ry="0.349" transform="translate(0 0.28) rotate(-42.289)"/></g></g><g transform="translate(352.809 526.481)"><g class="a" transform="translate(1.348 1.348)"><circle class="b" cx="12.996" cy="12.996" r="12.996"/></g><path class="b" d="M1846.649-1049.3a13,13,0,0,1,13,13,13,13,0,0,1-13,13,13,13,0,0,1-13-13,13,13,0,0,1,13-13m0-1.347a14.36,14.36,0,0,0-14.344,14.344,14.36,14.36,0,0,0,14.344,14.343,14.36,14.36,0,0,0,14.343-14.343,14.36,14.36,0,0,0-14.343-14.344Z" transform="translate(-1832.305 1050.652)"/><g transform="translate(2.967 7.743)"><path class="b" d="M1844.358-1013.456a.5.5,0,0,1-.343-.134c-3.8-3.5-3.5-9.6-1.238-13.812a.505.505,0,0,1,.684-.206.5.5,0,0,1,.206.684c-2.075,3.87-2.387,9.438,1.033,12.592a.505.505,0,0,1,.029.714A.5.5,0,0,1,1844.358-1013.456Z" transform="translate(-1841.111 1027.669)"/></g><g transform="translate(6.761 22.051)"><ellipse class="b" cx="0.379" cy="0.637" rx="0.379" ry="0.637" transform="translate(0 0.51) rotate(-42.289)"/></g></g></g></svg>