<svg xmlns="http://www.w3.org/2000/svg" width="95.848" height="52.253" viewBox="0 0 95.848 52.253"><defs><style>.a{fill:#ee7862;}.b{fill:#ffecc7;}.c{fill:#fff9b9;}.d{fill:#ffb750;}.e{fill:#fded9c;}</style></defs><g transform="translate(-452.975 -264.511)"><g transform="translate(487 264.826)"><path class="a" d="M2060.3,225.589,2073.275,220c2.9-1.25,6.3.769,5.741,3.417l-2.478,11.834a2.9,2.9,0,0,0,1.138,2.869l10.5,8.381c2.348,1.875,1.052,5.142-2.193,5.529l-14.505,1.727a3.989,3.989,0,0,0-2.979,1.773l-6.487,10.767a4.388,4.388,0,0,1-7.1,0l-6.487-10.767a3.989,3.989,0,0,0-2.979-1.773l-14.5-1.727c-3.245-.387-4.541-3.654-2.193-5.529l10.5-8.381a2.9,2.9,0,0,0,1.138-2.869l-2.478-11.834c-.554-2.648,2.838-4.667,5.741-3.417l12.974,5.587A4.739,4.739,0,0,0,2060.3,225.589Z" transform="translate(-2027.548 -219.621)"/><circle class="b" cx="2.077" cy="2.077" r="2.077" transform="translate(34.947 22.291)"/><circle class="b" cx="1.842" cy="1.842" r="1.842" transform="translate(41.502 23.977)"/><circle class="b" cx="1.672" cy="1.672" r="1.672" transform="translate(47.797 25.557)"/><circle class="b" cx="1.182" cy="1.182" r="1.182" transform="translate(53.694 27.446)"/><circle class="b" cx="2.077" cy="2.077" r="2.077" transform="translate(32.312 14.911)"/><circle class="b" cx="1.842" cy="1.842" r="1.842" transform="translate(36.852 11.122)"/><circle class="b" cx="1.672" cy="1.672" r="1.672" transform="translate(41.193 7.385)"/><circle class="b" cx="1.182" cy="1.182" r="1.182" transform="translate(45.777 5.47)"/><circle class="b" cx="2.077" cy="2.077" r="2.077" transform="translate(24.921 14.88)"/><circle class="b" cx="1.842" cy="1.842" r="1.842" transform="translate(21.05 10.957)"/><circle class="b" cx="1.672" cy="1.672" r="1.672" transform="translate(17.241 8.372)"/><circle class="b" cx="1.182" cy="1.182" r="1.182" transform="translate(13.824 4.887)"/><circle class="b" cx="2.077" cy="2.077" r="2.077" transform="translate(22.06 21.385)"/><circle class="b" cx="1.842" cy="1.842" r="1.842" transform="translate(16.198 23.596)"/><circle class="b" cx="1.672" cy="1.672" r="1.672" transform="translate(10.46 25.687)"/><circle class="c" cx="1.182" cy="1.182" r="1.182" transform="translate(5.754 28.079)"/><circle class="b" cx="2.077" cy="2.077" r="2.077" transform="translate(28.834 25.567)"/><circle class="b" cx="1.842" cy="1.842" r="1.842" transform="translate(29.069 31.111)"/><circle class="b" cx="1.672" cy="1.672" r="1.672" transform="translate(29.24 36.439)"/><circle class="b" cx="1.182" cy="1.182" r="1.182" transform="translate(29.729 40.525)"/></g><g transform="matrix(0.875, 0.485, -0.485, 0.875, 469.891, 264.511)"><path class="d" d="M23.753,4.294,33.162.273c2.1-.9,4.566.554,4.164,2.459l-1.8,8.517a2.08,2.08,0,0,0,.825,2.065l7.612,6.032c1.7,1.35.763,3.7-1.59,3.979l-10.52,1.243a2.9,2.9,0,0,0-2.16,1.276l-4.7,7.749a3.2,3.2,0,0,1-5.147,0l-4.7-7.749a2.9,2.9,0,0,0-2.161-1.276L2.46,23.324C.106,23.046-.834,20.695.87,19.345l7.612-6.032a2.079,2.079,0,0,0,.825-2.065L7.51,2.732C7.108.827,9.568-.627,11.673.273l9.409,4.021A3.461,3.461,0,0,0,23.753,4.294Z" transform="translate(0 0)"/><circle class="e" cx="1.489" cy="1.489" r="1.489" transform="translate(25.365 16.048)"/><circle class="e" cx="1.32" cy="1.32" r="1.32" transform="translate(30.12 17.261)"/><circle class="e" cx="1.198" cy="1.198" r="1.198" transform="translate(34.686 18.398)"/><circle class="e" cx="0.847" cy="0.847" r="0.847" transform="translate(39.008 19.756)"/><circle class="e" cx="1.489" cy="1.489" r="1.489" transform="translate(23.453 10.735)"/><circle class="e" cx="1.32" cy="1.32" r="1.32" transform="translate(26.745 8.006)"/><circle class="e" cx="1.198" cy="1.198" r="1.198" transform="translate(29.894 5.316)"/><circle class="e" cx="0.847" cy="0.847" r="0.847" transform="translate(33.214 3.921)"/><circle class="e" cx="1.489" cy="1.489" r="1.489" transform="translate(18.088 10.712)"/><circle class="e" cx="1.32" cy="1.32" r="1.32" transform="translate(15.277 7.888)"/><circle class="e" cx="1.198" cy="1.198" r="1.198" transform="translate(12.512 6.027)"/><circle class="e" cx="0.847" cy="0.847" r="0.847" transform="translate(10.03 3.503)"/><circle class="e" cx="1.489" cy="1.489" r="1.489" transform="translate(16.012 15.396)"/><circle class="e" cx="1.32" cy="1.32" r="1.32" transform="translate(11.756 16.986)"/><circle class="e" cx="1.198" cy="1.198" r="1.198" transform="translate(7.591 18.491)"/><circle class="e" cx="0.847" cy="0.847" r="0.847" transform="translate(4.124 20.211)"/><circle class="e" cx="1.489" cy="1.489" r="1.489" transform="translate(20.928 18.406)"/><circle class="e" cx="1.32" cy="1.32" r="1.32" transform="translate(21.097 22.396)"/><circle class="e" cx="1.198" cy="1.198" r="1.198" transform="translate(21.219 26.231)"/><circle class="e" cx="0.847" cy="0.847" r="0.847" transform="translate(21.57 29.187)"/></g></g></svg>