<svg xmlns="http://www.w3.org/2000/svg" width="286.398" height="245.819" viewBox="0 0 286.398 245.819"><defs><style>.a{fill:#fff;}.b{fill:#f1f8fb;}</style></defs><g transform="translate(-2658.588 -1709.747)"><g transform="translate(2658.588 1709.747)"><path class="a" d="M2946.092,1842.75c12.5-41.651-15.619-48.593-15.619-48.593,2.43-36.1-34.362-38.18-34.362-38.18-13.537-32.626-52.064-20.478-52.064-20.478-9.256-16.2-33.311-17.6-35.578-17.7v-.006l-.086,0-.086,0v.006c-2.267.1-26.321,1.5-35.578,17.7,0,0-38.527-12.148-52.064,20.478,0,0-36.792,2.083-34.362,38.18,0,0-28.114,6.942-15.619,48.593,0,0-12.148,20.131,4.512,42,0,0,19.516,29.195,113.5,66.642l19.611,2.064v.018l.086-.009.086.009v-.018l19.611-2.064c93.983-37.447,113.5-66.642,113.5-66.642C2958.24,1862.881,2946.092,1842.75,2946.092,1842.75Z" transform="translate(-2665.184 -1716.545)"/><path class="a" d="M2800.486,1948.022v-.272l-18.69-1.968-.156-.062a583.484,583.484,0,0,1-57.5-26.267,305.058,305.058,0,0,1-34.75-21.24c-16.213-11.682-21.354-18.928-21.783-19.554a43.891,43.891,0,0,1-7.927-16.21,38.569,38.569,0,0,1-.8-13.846,37.451,37.451,0,0,1,3.886-12.8c-4.515-15.341-4.124-27.814,1.165-37.08a27.22,27.22,0,0,1,14.5-12.248c-.513-10.434,2.176-19.061,8-25.655,5.438-6.157,12.64-9.323,17.724-10.9a47.815,47.815,0,0,1,9.074-1.9,36.339,36.339,0,0,1,14.034-16.845,40.136,40.136,0,0,1,17.8-5.69,60.96,60.96,0,0,1,20.5,1.779c8.988-14.517,29.38-17,34.928-17.413v-.108l1.3.033,1.3-.04v.115c5.546.411,25.939,2.895,34.928,17.413a60.96,60.96,0,0,1,20.5-1.779,40.134,40.134,0,0,1,17.795,5.69,36.339,36.339,0,0,1,14.034,16.845,47.8,47.8,0,0,1,9.073,1.9c5.084,1.573,12.286,4.739,17.724,10.9,5.824,6.594,8.514,15.221,8,25.655a27.219,27.219,0,0,1,14.5,12.248c5.289,9.267,5.681,21.74,1.165,37.08a37.448,37.448,0,0,1,3.887,12.8,38.58,38.58,0,0,1-.8,13.846,43.9,43.9,0,0,1-7.927,16.21c-.428.626-5.569,7.873-21.783,19.554a305.063,305.063,0,0,1-34.75,21.24,583.458,583.458,0,0,1-57.5,26.267l-.156.062-.167.018-18.524,1.95v.272l-1.3-.135Zm-18.1-4.621,19.4,2.043,19.4-2.043c48.155-19.2,76.251-36.149,91.343-46.99,16.37-11.76,21.392-19.065,21.441-19.137l.042-.059c6.71-8.808,9.491-18.334,8.264-28.315a34.2,34.2,0,0,0-3.826-12.319l-.278-.461.155-.516c4.463-14.879,4.2-26.866-.775-35.628a24.78,24.78,0,0,0-13.974-11.437l-.984-.247.066-1.013c.686-10.2-1.784-18.556-7.342-24.847-9.719-11-25.717-12.029-25.877-12.038l-.762-.043-.292-.7c-5.427-13.082-15.554-20.393-30.1-21.73a58.594,58.594,0,0,0-20.479,1.945l-.934.294-.486-.85c-8.886-15.552-31.971-16.973-34.574-17.084l-.034,0h0l-.031,0c-2.6.111-25.688,1.533-34.575,17.084l-.486.85-.934-.294a58.736,58.736,0,0,0-20.552-1.938c-14.5,1.356-24.606,8.665-30.025,21.723l-.292.7-.761.043c-.16.01-16.193,1.059-25.89,12.053-5.548,6.29-8.014,14.645-7.328,24.833l.068,1.017-.99.244a24.78,24.78,0,0,0-13.972,11.436c-4.978,8.762-5.239,20.749-.775,35.628l.155.516-.278.461a34.465,34.465,0,0,0-3.839,12.427c-1.193,9.943,1.592,19.434,8.277,28.208l.043.061c.048.07,5.07,7.376,21.44,19.135C2706.132,1907.252,2734.228,1924.2,2782.383,1943.4Z" transform="translate(-2658.588 -1709.747)"/></g><g transform="translate(2658.588 1709.747)"><path class="b" d="M2800.486,1948.022v-.272l-18.69-1.968-.156-.062a583.484,583.484,0,0,1-57.5-26.267,305.058,305.058,0,0,1-34.75-21.24c-16.213-11.682-21.354-18.928-21.783-19.554a43.891,43.891,0,0,1-7.927-16.21,38.569,38.569,0,0,1-.8-13.846,37.451,37.451,0,0,1,3.886-12.8c-4.515-15.341-4.124-27.814,1.165-37.08a27.22,27.22,0,0,1,14.5-12.248c-.513-10.434,2.176-19.061,8-25.655,5.438-6.157,12.64-9.323,17.724-10.9a47.815,47.815,0,0,1,9.074-1.9,36.339,36.339,0,0,1,14.034-16.845,40.136,40.136,0,0,1,17.8-5.69,60.96,60.96,0,0,1,20.5,1.779c8.988-14.517,29.38-17,34.928-17.413v-.108l1.3.033,1.3-.04v.115c5.546.411,25.939,2.895,34.928,17.413a60.96,60.96,0,0,1,20.5-1.779,40.134,40.134,0,0,1,17.795,5.69,36.339,36.339,0,0,1,14.034,16.845,47.8,47.8,0,0,1,9.073,1.9c5.084,1.573,12.286,4.739,17.724,10.9,5.824,6.594,8.514,15.221,8,25.655a27.219,27.219,0,0,1,14.5,12.248c5.289,9.267,5.681,21.74,1.165,37.08a37.448,37.448,0,0,1,3.887,12.8,38.58,38.58,0,0,1-.8,13.846,43.9,43.9,0,0,1-7.927,16.21c-.428.626-5.569,7.873-21.783,19.554a305.063,305.063,0,0,1-34.75,21.24,583.458,583.458,0,0,1-57.5,26.267l-.156.062-.167.018-18.524,1.95v.272l-1.3-.135Zm-18.1-4.621,19.4,2.043,19.4-2.043c48.155-19.2,76.251-36.149,91.343-46.99,16.37-11.76,21.392-19.065,21.441-19.137l.042-.059c6.71-8.808,9.491-18.334,8.264-28.315a34.2,34.2,0,0,0-3.826-12.319l-.278-.461.155-.516c4.463-14.879,4.2-26.866-.775-35.628a24.78,24.78,0,0,0-13.974-11.437l-.984-.247.066-1.013c.686-10.2-1.784-18.556-7.342-24.847-9.719-11-25.717-12.029-25.877-12.038l-.762-.043-.292-.7c-5.427-13.082-15.554-20.393-30.1-21.73a58.594,58.594,0,0,0-20.479,1.945l-.934.294-.486-.85c-8.886-15.552-31.971-16.973-34.574-17.084l-.034,0h0l-.031,0c-2.6.111-25.688,1.533-34.575,17.084l-.486.85-.934-.294a58.736,58.736,0,0,0-20.552-1.938c-14.5,1.356-24.606,8.665-30.025,21.723l-.292.7-.761.043c-.16.01-16.193,1.059-25.89,12.053-5.548,6.29-8.014,14.645-7.328,24.833l.068,1.017-.99.244a24.78,24.78,0,0,0-13.972,11.436c-4.978,8.762-5.239,20.749-.775,35.628l.155.516-.278.461a34.465,34.465,0,0,0-3.839,12.427c-1.193,9.943,1.592,19.434,8.277,28.208l.043.061c.048.07,5.07,7.376,21.44,19.135C2706.132,1907.252,2734.228,1924.2,2782.383,1943.4Z" transform="translate(-2658.588 -1709.747)"/></g><g transform="translate(2760.348 1728.007)"><path class="b" d="M3353.228,2046.187c-13.5-42.095-23.784-79.765-30.565-111.963-5.431-25.789-8.641-48.155-9.542-66.476-1.549-31.5,4.267-40.242,4.516-40.6l1.994,1.388-1-.694,1,.685c-.015.021-1.441,2.2-2.646,8.192-1.111,5.53-2.256,15.531-1.4,31.776,1.511,28.609,9.667,82.531,39.95,176.949Z" transform="translate(-3312.86 -1827.149)"/></g><g transform="translate(2709.356 1748.449)"><path class="b" d="M3071.75,2157.01c-25.7-36.045-46.064-68.853-60.533-97.512-11.6-22.972-19.46-43.36-23.37-60.6-6.742-29.729.573-39.9.888-40.317l1.941,1.46-.971-.73.977.723c-.018.024-1.776,2.491-2.692,8.489-.85,5.567-1.126,15.382,2.386,30.531,6.212,26.793,25.716,75.7,83.353,156.543Z" transform="translate(-2985.003 -1958.583)"/></g><g transform="translate(2678.167 1787.1)"><path class="b" d="M2897.049,2366.506c-28.254-23.825-51.732-46.992-69.782-68.857-14.467-17.525-25.505-34.267-32.809-49.759-12.537-26.594-9.768-40.23-9.644-40.8l2.374.519-1.187-.259,1.188.256c-.007.033-.7,3.406.142,9.942.776,6.044,3.055,16.1,9.5,29.682,11.41,24.034,38.33,63.913,101.781,117.418Z" transform="translate(-2784.471 -2207.092)"/></g><g transform="translate(2662.883 1835.727)"><path class="b" d="M2787.521,2622.5c-21.345-14.1-39.943-28.231-55.277-41.994a241.618,241.618,0,0,1-30.423-32.173c-13.548-17.7-15.536-27.729-15.614-28.147l2.388-.448c.019.1,2.043,10.063,15.356,27.38,12.3,16,37.014,41.712,84.91,73.355Z" transform="translate(-2686.207 -2519.74)"/></g><g transform="translate(2800.544 1728.007)"><path class="b" d="M3573.615,2046.187l-2.313-.742c30.506-95.118,38.586-149.2,39.994-177.817,1.508-30.678-4.027-39.011-4.084-39.092l1.994-1.388c.249.357,6.065,9.1,4.517,40.6-.9,18.322-4.111,40.688-9.542,66.476C3597.4,1966.423,3587.115,2004.093,3573.615,2046.187Z" transform="translate(-3571.301 -1827.149)"/></g><g transform="translate(2805.492 1748.449)"><path class="b" d="M3605.094,2157.01l-1.979-1.41c58-81.354,77.428-130.41,83.511-157.237,6.5-28.642-.389-38.226-.459-38.32l1.942-1.46c.314.418,7.629,10.588.887,40.317-3.909,17.238-11.771,37.625-23.37,60.6C3651.158,2088.157,3630.792,2120.965,3605.094,2157.01Z" transform="translate(-3603.116 -1958.583)"/></g><g transform="translate(2811.263 1787.1)"><path class="b" d="M3641.786,2366.506l-1.566-1.857c63.693-53.709,90.6-93.7,101.959-117.795,12.187-25.853,9.5-39.112,9.468-39.243l2.374-.519c.124.568,2.893,14.2-9.644,40.8-7.3,15.492-18.341,32.234-32.808,49.759C3693.518,2319.514,3670.041,2342.681,3641.786,2366.506Z" transform="translate(-3640.22 -2207.092)"/></g><g transform="translate(2838.036 1835.729)"><path class="b" d="M3813.7,2622.518l-1.339-2.027c48.087-31.77,72.825-57.568,85.111-73.617,13.2-17.241,15.137-27.019,15.154-27.116l2.389.446c-.078.418-2.066,10.449-15.614,28.147a241.588,241.588,0,0,1-30.423,32.173C3853.643,2594.288,3835.045,2608.417,3813.7,2622.518Z" transform="translate(-3812.361 -2519.759)"/></g><g transform="translate(2743.303 1930.021)"><path class="a" d="M3318.217,3134.307c-21.2,9.924-48.2,14.639-49.917,14.931-1.713-.292-28.718-5.007-49.917-14.931-10.08-4.718-21.022,26.007,49.917,22.31C3339.239,3160.314,3328.3,3129.589,3318.217,3134.307Z" transform="translate(-3209.817 -3132.6)"/><path class="b" d="M3273.188,3151.558c-3.539,0-7.341-.1-11.434-.311-45.351,2.351-55.44-9.255-57.672-14.356-1.452-3.321-.927-6.893,1.339-9.1a6.053,6.053,0,0,1,6.931-1.168c20.436,9.566,46.618,14.312,49.4,14.8,2.783-.487,28.965-5.232,49.4-14.8a6.054,6.054,0,0,1,6.931,1.168c2.266,2.209,2.792,5.782,1.339,9.1C3317.4,3141.531,3308.857,3151.556,3273.188,3151.558Zm-11.434-2.744.063,0c17.534.914,31.457-.2,41.381-3.3,9.876-3.086,13.011-7.342,14-9.6,1.268-2.9.356-5.252-.809-6.388a3.628,3.628,0,0,0-4.2-.708h0c-21.444,10.039-49.062,14.83-50.227,15.029l-.2.035-.2-.035c-1.165-.2-28.784-4.991-50.227-15.029a3.627,3.627,0,0,0-4.2.708c-1.166,1.136-2.077,3.491-.809,6.388.989,2.263,4.125,6.519,14,9.6,9.924,3.1,23.848,4.209,41.381,3.3Z" transform="translate(-3203.27 -3126.013)"/></g></g></svg>